<?xml version="1.0" encoding="utf-8"?>
<!-- Generator: Adobe Illustrator 20.1.0, SVG Export Plug-In . SVG Version: 6.00 Build 0)  -->
<svg version="1.1" id="Layer_1" xmlns="http://www.w3.org/2000/svg" xmlns:xlink="http://www.w3.org/1999/xlink" x="0px" y="0px"
	 viewBox="0 0 220 55.8" style="enable-background:new 0 0 220 55.8;" xml:space="preserve">
<style type="text/css">
	.st0{fill:#FFFFFF;}
</style>
<g>
	<path class="st0" d="M24.2,3.4c0-0.3-0.5-0.5-1.4-0.5c-2.2,0-4.6,0.4-7.2,1.2C13.1,4.9,10.9,6,9,7.4c-1.8,1.4-2.8,2.8-2.8,4.2
		c0,1.4,1.6,3.8,4.8,7.1c3.2,3.4,4.8,5.9,4.8,7.6c0,1.2-0.6,2.2-1.8,3.1c-1.2,0.8-2.7,1.2-4.4,1.2H8.3c-3.6,0-6-1.1-7.4-3.3L1,27
		c1.6,0.7,3.3,1.1,5.1,1.1c1.8,0,3.6-0.4,5.4-1.1c1.8-0.7,2.7-1.5,2.7-2.5c0-0.6-0.8-1.7-2.4-3.4c-3.1-3.2-5-5.4-5.8-6.6
		c-0.8-1.1-1.1-2.5-1.1-4.1c0-4.1,3.8-7.2,11.5-9.2c3.4-0.8,5.4-1.2,5.8-1.2c0.5,0,0.9,0.1,1.3,0.2L25,1.8c0.6,0.7,0.9,1.2,1,1.7
		c0,0.8-1,1.7-3,2.8c-2,1.1-3.2,1.6-3.6,1.6l-0.1-0.3l2.8-1.9C23.5,4.7,24.2,3.9,24.2,3.4z"/>
	<path class="st0" d="M31.6,20.5c0.2,0,0.3,0.1,0.3,0.3c0,0.2,0,0.3-0.1,0.5c-3.9,5.7-7.1,8.5-9.7,8.5c-3.1,0-4.7-1.5-4.7-4.4
		c0-2.3,1.1-5,3.4-8.2c2.2-3.2,4.4-4.8,6.5-4.8c0.9,0,1.7,0.3,2.4,0.9c0.7,0.6,1,1.3,1,2.1c0,1.4-0.9,2.8-2.6,4.2
		c-1.7,1.4-3.4,2.1-5.1,2.1c-0.3,0-0.5-0.1-0.5-0.2l0.2-0.3c4.3-1.3,6.4-3.5,6.4-6.6c0-0.4-0.1-0.7-0.4-0.7c-0.4,0-1.2,0.4-2.2,1.3
		c-1.8,1.5-3.4,3.3-4.7,5.6s-2,4.1-2,5.6s0.6,2.3,1.7,2.3c1.3,0,2.8-0.7,4.4-2.1c1-1,2.3-2.2,3.6-3.7C30.8,21.3,31.5,20.5,31.6,20.5
		z"/>
	<path class="st0" d="M55.5,16.5c-1.5,4.1-2.2,7-2.2,8.8c0,1.8,0.3,2.6,0.9,2.6c0.1-0.3,0.2-0.7,0.4-1.2c0.1,0.3,0.2,0.6,0.2,1.2
		c0,1-0.3,1.4-0.9,1.4c-1.9,0-2.9-1.7-2.9-5c0-1.6,0.3-3.7,0.8-6.2c-0.9,0.9-1.7,1.9-2.6,3.2l-2.9,4.1c-1.6,2.3-2.6,3.4-2.9,3.4
		c-1.3,0-1.9-0.2-1.9-0.7c0-0.1,0.2-1,0.6-2.6c1.3-4.8,1.9-8.1,1.9-9.8c0-0.8-0.2-1.2-0.7-1.2c-1.4,0-3.2,2-5.6,6.1
		C36.9,21.9,36,23.8,35,26c-1,2.2-1.5,3.3-1.6,3.3c-0.4,0-0.8-0.1-1.2-0.3c-0.4-0.2-0.6-0.4-0.6-0.7c0-0.6,0.6-2.9,1.8-6.7
		s1.8-6.7,1.8-8.6c0-0.6-0.3-1-0.8-1c-0.5-0.1-0.8-0.2-0.8-0.3c0-0.3,0.3-0.5,0.8-0.5c2.5,0,3.7,1,3.7,3.1c0,1-0.4,2.8-1.3,5.2
		l1.3-2.2c1-1.7,2-2.9,2.9-3.7c0.9-0.8,1.8-1.2,2.8-1.2c0,0,0.1,0,0.1,0c1.7,0,2.6,1.1,2.6,3.4c0,1.9-0.7,4.8-2.1,8.9l7.6-8.2
		c0.5-0.3,1.1-0.4,2-0.4C55,16,55.5,16.2,55.5,16.5z"/>
	<path class="st0" d="M60.4,21c-1,3-1.6,5.1-1.6,6.3c0,1.1,0.2,1.7,0.7,1.7c0.3,0,0.8-0.2,1.3-0.6c0.5-0.4,0.8-0.7,0.9-0.8
		c0.1-0.1,0.2-0.2,0.4-0.3c0.1,0,0.2,0.1,0.2,0.2c0,0.4-0.5,1-1.6,1.6S59,30,58.5,30c-1.4,0-2.1-1-2.1-3.1c0-3,1.1-7.1,3.3-12.2
		c0-0.1,0.1-0.4,0.3-0.8c0.2-0.4,0.4-0.7,0.5-0.8c0.3-0.3,0.6-0.4,1.1-0.4c1.3,0,2,0.3,2.1,0.8C62.5,15.5,61.5,18,60.4,21z
		 M66.6,4.4c0.1,0,0.1,0.1,0.1,0.3l-0.3,1.6c-0.6,2.3-1.4,3.4-2.6,3.4c-0.9,0-1.5-0.2-2-0.7C63.3,8.1,64.8,6.6,66.6,4.4z"/>
	<path class="st0" d="M81.1,12.4c0-0.1-0.2,0.1-0.6,0.6c-1.4,2-2.2,3.4-2.3,4.3c0,1,0.4,1.6,1.1,1.8c0.3,0.1,0.4,0.1,0.4,0.2
		c0,0.3-0.4,0.4-1.1,0.4s-1.3-0.3-1.9-0.9c-0.5-0.6-0.8-1.2-0.8-1.9s0.1-1.3,0.3-1.9c-1.8,1.4-3.3,2.9-4.5,4.4
		c-1.2,1.5-2,2.8-2.5,3.9c-0.4,1.1-0.8,2.1-1,3c-0.2,0.9-0.4,1.6-0.6,2.1c-0.1,0.5-0.4,0.7-0.7,0.7c-0.3,0-0.7-0.1-1.1-0.3
		c-0.4-0.2-0.6-0.4-0.6-0.7c0-0.6,0.6-2.9,1.8-6.7s1.8-6.7,1.8-8.6c0-0.6-0.3-1-0.8-1c-0.5-0.1-0.8-0.2-0.8-0.3
		c0-0.3,0.3-0.5,0.8-0.5c2.5,0,3.7,1,3.7,3.1c0,0.6-0.6,2.8-1.8,6.6c2-3.3,4.2-5.5,6.7-6.7c0.6-1.3,1.5-2,2.6-2
		C80.5,12,81.1,12.2,81.1,12.4z"/>
	<path class="st0" d="M90.6,30.4c0,0.4,0.1,1,0.4,1.7c0.3,0.8,0.4,1.2,0.3,1.2c-0.6,0-1-0.3-1.4-1c-0.4-0.6-0.6-1.7-0.6-3
		c0-4.5,2.6-11.3,7.9-20.6c1.4-2.8,2.4-4.2,2.9-4.2c0.4,0,0.9,0.1,1.4,0.4c0.5,0.2,0.8,0.4,0.8,0.6c-0.5,0.8-0.9,1.4-1.1,1.7
		c-0.2,0.4-0.5,0.8-0.9,1.4c-0.4,0.6-0.7,1.1-1.1,1.8C93.5,20.1,90.6,26.8,90.6,30.4z M120.6,3.5c0.8,0.3,1.2,0.5,1.2,0.8
		c0,0.3-0.2,0.4-0.6,0.4c-1-0.3-1.6-0.4-1.9-0.4c-1.7,0-3.7,0.8-6.2,2.4c-2.4,1.6-5.5,3.8-9.2,6.6c-3.7,2.8-6,4.6-6.9,5.3
		c2.1,4.3,4.6,7.8,7.7,10.5c3,2.7,5.5,4,7.5,4c1,0,1.5-0.5,1.5-1.4c0-0.9-0.9-2.7-2.8-5.4l0.1-0.1c0.2,0,0.6,0.3,1.2,0.8
		c1.8,1.7,2.7,3.3,2.7,4.7c0,0.9-0.4,1.6-1.1,2.1s-1.7,0.8-2.9,0.8c-2.3,0-4.7-1.1-7.1-3.2c-2.4-2.1-4.5-5-6.5-8.5
		c-1.3-2.8-2-4.3-2-4.4c0-0.1,0.1-0.3,0.4-0.7c0.3-0.4,0.5-0.6,0.7-0.6c0.2,0,0.3,0.1,0.3,0.4c1.9-1.3,4.1-3.1,6.6-5.4l4.9-4.5
		c2.3-1.9,4.2-3.1,5.7-3.8c1.4-0.6,2.7-0.9,3.8-0.9C118.8,3.1,119.8,3.3,120.6,3.5z"/>
	<path class="st0" d="M128.1,29.1l0.6-0.1l0.1,0.1c0,0.3-0.5,0.5-1.4,0.5c-0.9,0-1.6-0.4-2.2-1.2c-0.6-0.8-0.9-1.9-0.9-3.3
		c0-1.4,0.3-3,0.8-4.8c0,0.1-0.5,0.9-1.5,2.3c-3,4.7-5.4,7.1-7.2,7.1c-0.7,0-1.4-0.3-2-1c-0.6-0.7-0.9-1.6-0.9-2.7
		c0-1.1,0.7-2.8,2-5c1.3-2.2,2.9-4.2,4.8-6c1.9-1.7,3.4-2.6,4.8-2.6h0.6c1.4,0,2.5,0.3,3.5,0.8c1,0.5,1.4,1.3,1.4,2.1
		c0,0.4-0.2,0.6-0.5,0.6c-0.1,0-0.2-0.1-0.2-0.2c-0.6-1.4-1.5-2.1-2.7-2.1c-2.1,0-4.5,1.7-7.2,5.2c-2.7,3.5-4.1,6.1-4.1,7.9
		c0,0.7,0.2,1.1,0.6,1.1c1.7,0,5.2-3.8,10.5-11.3c0.1-0.1,0.2-0.1,0.4-0.1s0.5,0.2,1.1,0.5c0.6,0.4,0.9,0.7,0.9,0.9l-0.8,1.4
		c-1.2,2.6-1.8,4.9-1.8,6.8S127.1,29.1,128.1,29.1z"/>
	<path class="st0" d="M145.7,12.4c0-0.1-0.2,0.1-0.6,0.6c-1.4,2-2.2,3.4-2.3,4.3c0,1,0.4,1.6,1.1,1.8c0.3,0.1,0.4,0.1,0.4,0.2
		c0,0.3-0.4,0.4-1.1,0.4c-0.7,0-1.3-0.3-1.9-0.9c-0.5-0.6-0.8-1.2-0.8-1.9s0.1-1.3,0.3-1.9c-1.8,1.4-3.3,2.9-4.5,4.4
		c-1.2,1.5-2,2.8-2.5,3.9c-0.4,1.1-0.8,2.1-1,3c-0.2,0.9-0.4,1.6-0.6,2.1c-0.1,0.5-0.4,0.7-0.7,0.7c-0.3,0-0.7-0.1-1.1-0.3
		c-0.4-0.2-0.6-0.4-0.6-0.7c0-0.6,0.6-2.9,1.8-6.7c1.2-3.8,1.8-6.7,1.8-8.6c0-0.6-0.3-1-0.8-1c-0.5-0.1-0.8-0.2-0.8-0.3
		c0-0.3,0.3-0.5,0.8-0.5c2.5,0,3.7,1,3.7,3.1c0,0.6-0.6,2.8-1.8,6.6c2-3.3,4.2-5.5,6.7-6.7c0.6-1.3,1.5-2,2.6-2
		S145.7,12.2,145.7,12.4z"/>
	<path class="st0" d="M161.1,1.1l-1.9,0.4c-0.3,0-0.4-0.1-0.4-0.3c0-0.6,0.8-0.9,2.5-0.9c2.6,0,3.8,0.9,3.8,2.6
		c0,0.6-1.1,3.2-3.4,7.9c-2.3,4.7-3.5,7.1-3.5,7.3c-2,4.3-2.9,7.7-2.9,10.3c0,1.5,0.4,2.3,1.1,2.3L158,30l0.2,0.1
		c0,0.3-0.3,0.5-0.8,0.8c-0.5,0.3-1,0.4-1.3,0.4c-1.7,0-2.5-1.3-2.5-4c0-1.7,0.6-4.5,1.8-8.5c-1.4,2.8-2.9,5.3-4.6,7.5
		c-1.7,2.2-3.1,3.3-4.3,3.3c-0.7,0-1.5-0.5-2.3-1.4c-0.8-0.9-1.1-1.8-1.1-2.5c0-2.3,1.3-5.1,3.8-8.4c2.5-3.3,4.7-5,6.7-5
		c0.5,0,1.1,0.2,1.8,0.5c0.6,0.3,1,0.6,1,1c0,0.4-0.2,0.5-0.5,0.5l-1.1-0.6c-1.3,0-3.2,1.9-5.8,5.6c-2.6,3.7-3.9,6.3-3.9,7.9
		c0,0.6,0.2,0.8,0.5,0.8c0.3,0,1-0.4,1.9-1.2c1-0.8,2.3-2.2,3.9-4.1c1.6-1.9,3.3-4.1,5-6.5c0.7-1.6,1.9-4.4,3.5-8.2
		c1.6-3.9,2.4-5.8,2.4-5.8C162.2,1.4,161.8,1.1,161.1,1.1z"/>
	<path class="st0" d="M174.2,15.9l-1.4-0.2c0.1,0.7,0.1,1.3,0.1,1.8c0,3.1-0.8,5.8-2.3,8.1c-1.6,2.4-3.5,3.5-5.8,3.5
		c-3,0-4.5-1.6-4.5-4.7c0-1.3,0.3-2.6,0.9-4c0.6-1.4,1.3-2.6,2.1-3.5c-0.4-0.7-0.6-1.5-0.6-2.6c0-1.1,0.4-2,1.3-2.9
		c0.9-0.9,2-1.3,3.3-1.3c2.4,0,4.1,1.3,4.9,3.8c1.7,0.3,2.6,0.7,2.6,1.2C174.8,15.7,174.6,15.9,174.2,15.9z M166,18.3
		c0.4,0.3,0.7,0.4,0.9,0.4c0.2,0,0.4,0,0.4,0c0.2,0,0.3,0.1,0.3,0.3c0,0.3-0.3,0.4-0.8,0.4c-0.5,0-1-0.1-1.4-0.4
		c-2,2.3-2.9,4.5-2.9,6.5c0,2,0.8,3,2.3,3c1.5,0,2.9-1.2,4.3-3.6c1.3-2.4,2-4.7,2-6.9c0-1-0.2-1.7-0.5-2.3
		C169.1,15.9,167.6,16.8,166,18.3z M166.6,11.7c-0.8,0-1.4,0.4-1.9,1.1c-0.5,0.7-0.8,1.4-0.8,2.1c0,0.7,0.1,1.3,0.2,1.6
		c2.5-1.9,4.3-2.8,5.2-2.8h0.2C169,12.3,168,11.7,166.6,11.7z"/>
	<path class="st0" d="M191.9,10.9c0,0.2-0.1,0.3-0.2,0.4c-2.1,1.3-4.5,3.3-7.1,6.1c-2.6,2.8-4.6,6-5.9,9.6c-0.4,1.8-0.9,2.7-1.4,2.7
		c-1.1,0-1.7-0.3-1.7-0.8c0.6-6,0.8-9.5,0.8-10.6c0-3.1-0.5-4.6-1.4-4.7c-0.1,0-0.2,0.2-0.4,0.5c-0.2,0.3-0.3,0.4-0.4,0.4
		c-0.3,0-0.5-0.3-0.5-0.8c0-0.7,0.6-1.1,1.8-1.1c2.3,0,3.5,2.1,3.5,6.2c0,0.4-0.1,1.6-0.4,3.6c0,0.1,0.1,0.2,0.2,0.2
		c0.1,0,0.2-0.1,0.4-0.4c2.6-3.7,5-6.6,7.1-8.8c2.1-2.2,3.7-3.3,4.8-3.3C191.7,10.3,191.9,10.5,191.9,10.9z"/>
	<path class="st0" d="M191.6,21c-1,3-1.6,5.1-1.6,6.3c0,1.1,0.2,1.7,0.7,1.7c0.3,0,0.8-0.2,1.3-0.6c0.5-0.4,0.8-0.7,0.9-0.8
		c0.1-0.1,0.2-0.2,0.4-0.3c0.1,0,0.2,0.1,0.2,0.2c0,0.4-0.5,1-1.6,1.6c-1.1,0.6-1.8,0.9-2.3,0.9c-1.4,0-2.1-1-2.1-3.1
		c0-3,1.1-7.1,3.3-12.2c0-0.1,0.1-0.4,0.3-0.8c0.2-0.4,0.4-0.7,0.5-0.8c0.3-0.3,0.6-0.4,1.1-0.4c1.3,0,2,0.3,2.1,0.8
		C193.8,15.5,192.7,18,191.6,21z M197.8,4.4c0.1,0,0.1,0.1,0.1,0.3l-0.3,1.6c-0.6,2.3-1.4,3.4-2.6,3.4c-0.9,0-1.5-0.2-2-0.7
		C194.5,8.1,196.1,6.6,197.8,4.4z"/>
	<path class="st0" d="M203.7,0.6L201.8,1c-0.3,0-0.4-0.1-0.4-0.3c0-0.6,0.7-0.8,2.1-0.8c1.4,0,2.5,0.3,3.2,0.8
		c0.7,0.5,1.1,1.1,1.1,1.8c0,0.7-1.4,4.3-4.3,10.9c-3.1,6.8-4.9,10.9-5.4,12.4c0.1-0.3,1.4-2.1,3.8-5.2l-1.1-0.9
		c0-0.3,0.3-0.7,0.8-1.3c0.5-0.6,0.9-0.9,1.1-0.9c0.2,0,0.6,0.2,1.3,0.7c1.7-1.9,3.5-3.6,5.3-5.1c1.8-1.5,3.1-2.3,3.9-2.3
		c0.4,0,0.6,0.4,0.6,1.2c0,2-0.8,3.8-2.3,5.5c-1.5,1.7-3.3,2.8-5.2,3.2c1.5,2.4,2.2,5,2.2,7.9c0,1.1-0.1,2.2-0.4,3.4
		c-0.2,1.1-0.5,1.7-0.8,1.7s-0.5-0.1-0.5-0.4l0.3-2.2c0-3.3-1.5-6.5-4.5-9.7c-2.9,4-4.5,6.6-4.9,7.6c0.1,0.1,0.2,0.2,0.2,0.3
		c0,0.3-0.2,0.5-0.7,0.5c-0.6,0-0.9-0.5-0.9-1.6c0-1.1,0.3-2.8,0.9-5l4.3-10.7c2.2-5.8,3.3-9.2,3.3-10.2
		C204.8,1.2,204.4,0.6,203.7,0.6z M210.6,13.1c0-0.1,0-0.2-0.1-0.2s-1,0.9-2.9,2.6c-1.9,1.8-2.9,2.8-3.1,3c0.1,0.3,0.6,0.5,1.4,0.5
		s1.8-0.7,2.9-2.2C210.1,15.4,210.6,14.2,210.6,13.1z"/>
	<path class="st0" d="M215,15.7l-0.2-2.3v-0.1c0-0.3,0.2-0.4,0.5-0.4c0.3,0,0.8,0.1,1.4,0.4c0.6,0.3,1,0.6,1.1,0.9
		c0.1,0.6,0.2,1.4,0.2,2.3c0,3.7-1.3,8.6-3.9,14.7c-2.6,6.1-5.9,11.6-10,16.6c-4.1,5-7.5,7.4-10.3,7.4c-1.3,0-2.2-0.3-2.8-0.8
		s-0.9-1.5-0.9-2.7c0-2.9,2.1-6.7,6.2-11.3c4.1-4.7,8.8-8.6,13.9-11.8l0.4-0.2c0.1,0,0.1,0.1,0.1,0.2c0,0.1-0.2,0.4-0.7,0.9
		c-12.5,10.4-18.7,17.9-18.7,22.5c0,1.8,0.7,2.7,2.1,2.7c2,0,4.4-1.5,6.9-4.4c2.6-3,4.9-6.5,7-10.6c2.1-4.1,3.9-8.4,5.3-12.9
		C214.3,22.3,215,18.6,215,15.7z M220,5.6c0.1,0,0.1,0.1,0.1,0.3c0,0.2-0.1,0.4-0.1,0.5c-0.4,3-1.4,4.6-2.7,4.6
		c-0.9,0-1.5-0.2-2.1-0.7C216.7,9.3,218.2,7.7,220,5.6z"/>
</g>
</svg>
